#N canvas 520 765 450 300 12;
#X obj 169 79 thread1;
#X msg 105 29 start;
#X msg 195 31 stop;
#X obj 145 182 print;
#X obj 162 134 list;
#X connect 0 0 4 0;
#X connect 1 0 0 0;
#X connect 2 0 0 0;
#X connect 4 0 3 0;
